<?xml version="1.0" encoding="utf-8"?>
<svg xmlns="http://www.w3.org/2000/svg" style="margin: auto; background: rgb(11, 19, 29); display: block; shape-rendering: auto;" width="640" height="128" preserveAspectRatio="xMidYMid">
<style type="text/css">
  text {
    text-anchor: middle; font-size: 48px; opacity: 0;
  }
</style>
<g style="transform-origin:320px 64px;transform:scale(1)">
<style type="text/css">
  @keyframes ld-speed-dash {
    0% { transform: translate(0,-256px); }
    100% { transform: translate(0,256px); }
  }
  .ld.ld-speed-dash-1 {
    animation: ld-speed-dash 0.5s linear infinite;
  }
  .ld.ld-speed-dash-2 {
    animation: ld-speed-dash 1s linear infinite;
  }
</style>
  <g transform="translate(320,64)">
    <g style="transform:rotate(45deg)">
      <g class="ld ld-speed-dash-1"><line x1="3.895600938211601" x2="3.895600938211601" y1="542.4520195629598" y2="651.8096854556475" stroke="#009090" stroke-width="0.8431290810871483" stroke-linecap="round"></line><line x1="3.895600938211601" x2="3.895600938211601" y1="286.45201956295983" y2="395.80968545564747" stroke="#009090" stroke-width="0.8431290810871483" stroke-linecap="round"></line><line x1="3.895600938211601" x2="3.895600938211601" y1="30.452019562959833" y2="139.80968545564747" stroke="#009090" stroke-width="0.8431290810871483" stroke-linecap="round"></line><line x1="3.895600938211601" x2="3.895600938211601" y1="-225.54798043704017" y2="-116.19031454435253" stroke="#009090" stroke-width="0.8431290810871483" stroke-linecap="round"></line><line x1="3.895600938211601" x2="3.895600938211601" y1="-481.54798043704017" y2="-372.19031454435253" stroke="#009090" stroke-width="0.8431290810871483" stroke-linecap="round"></line><line x1="226.8551151678045" x2="226.8551151678045" y1="613.5396822912637" y2="714.06128678292" stroke="#009090" stroke-width="4.671389663615935" stroke-linecap="round"></line><line x1="226.8551151678045" x2="226.8551151678045" y1="357.5396822912638" y2="458.06128678292004" stroke="#009090" stroke-width="4.671389663615935" stroke-linecap="round"></line><line x1="226.8551151678045" x2="226.8551151678045" y1="101.53968229126377" y2="202.06128678292004" stroke="#009090" stroke-width="4.671389663615935" stroke-linecap="round"></line><line x1="226.8551151678045" x2="226.8551151678045" y1="-154.46031770873623" y2="-53.938713217079965" stroke="#009090" stroke-width="4.671389663615935" stroke-linecap="round"></line><line x1="226.8551151678045" x2="226.8551151678045" y1="-410.4603177087362" y2="-309.93871321707996" stroke="#009090" stroke-width="4.671389663615935" stroke-linecap="round"></line><line x1="141.19428384866922" x2="141.19428384866922" y1="429.8905058441502" y2="498.10585432529933" stroke="#009090" stroke-width="2.8828621141257447" stroke-linecap="round"></line><line x1="141.19428384866922" x2="141.19428384866922" y1="173.8905058441502" y2="242.10585432529933" stroke="#009090" stroke-width="2.8828621141257447" stroke-linecap="round"></line><line x1="141.19428384866922" x2="141.19428384866922" y1="-82.1094941558498" y2="-13.894145674700653" stroke="#009090" stroke-width="2.8828621141257447" stroke-linecap="round"></line><line x1="141.19428384866922" x2="141.19428384866922" y1="-338.1094941558498" y2="-269.89414567470067" stroke="#009090" stroke-width="2.8828621141257447" stroke-linecap="round"></line><line x1="141.19428384866922" x2="141.19428384866922" y1="-594.1094941558498" y2="-525.8941456747007" stroke="#009090" stroke-width="2.8828621141257447" stroke-linecap="round"></line><line x1="-184.8328538087351" x2="-184.8328538087351" y1="409.1926024934815" y2="587.7307899511093" stroke="#009090" stroke-width="0.0047163863342281065" stroke-linecap="round"></line><line x1="-184.8328538087351" x2="-184.8328538087351" y1="153.1926024934815" y2="331.73078995110933" stroke="#009090" stroke-width="0.0047163863342281065" stroke-linecap="round"></line><line x1="-184.8328538087351" x2="-184.8328538087351" y1="-102.8073975065185" y2="75.73078995110932" stroke="#009090" stroke-width="0.0047163863342281065" stroke-linecap="round"></line><line x1="-184.8328538087351" x2="-184.8328538087351" y1="-358.8073975065185" y2="-180.26921004889067" stroke="#009090" stroke-width="0.0047163863342281065" stroke-linecap="round"></line><line x1="-184.8328538087351" x2="-184.8328538087351" y1="-614.8073975065186" y2="-436.26921004889067" stroke="#009090" stroke-width="0.0047163863342281065" stroke-linecap="round"></line><line x1="128.62277732805268" x2="128.62277732805268" y1="409.9166927069809" y2="571.6574148842653" stroke="#009090" stroke-width="0.4853489779591258" stroke-linecap="round"></line><line x1="128.62277732805268" x2="128.62277732805268" y1="153.91669270698088" y2="315.6574148842654" stroke="#009090" stroke-width="0.4853489779591258" stroke-linecap="round"></line><line x1="128.62277732805268" x2="128.62277732805268" y1="-102.08330729301912" y2="59.65741488426538" stroke="#009090" stroke-width="0.4853489779591258" stroke-linecap="round"></line><line x1="128.62277732805268" x2="128.62277732805268" y1="-358.0833072930191" y2="-196.3425851157346" stroke="#009090" stroke-width="0.4853489779591258" stroke-linecap="round"></line><line x1="128.62277732805268" x2="128.62277732805268" y1="-614.0833072930191" y2="-452.3425851157346" stroke="#009090" stroke-width="0.4853489779591258" stroke-linecap="round"></line><line x1="-193.09934391798123" x2="-193.09934391798123" y1="518.8957878716456" y2="691.9110715049205" stroke="#009090" stroke-width="2.314627002651104" stroke-linecap="round"></line><line x1="-193.09934391798123" x2="-193.09934391798123" y1="262.8957878716456" y2="435.9110715049206" stroke="#009090" stroke-width="2.314627002651104" stroke-linecap="round"></line><line x1="-193.09934391798123" x2="-193.09934391798123" y1="6.895787871645609" y2="179.91107150492059" stroke="#009090" stroke-width="2.314627002651104" stroke-linecap="round"></line><line x1="-193.09934391798123" x2="-193.09934391798123" y1="-249.1042121283544" y2="-76.08892849507941" stroke="#009090" stroke-width="2.314627002651104" stroke-linecap="round"></line><line x1="-193.09934391798123" x2="-193.09934391798123" y1="-505.1042121283544" y2="-332.0889284950794" stroke="#009090" stroke-width="2.314627002651104" stroke-linecap="round"></line><line x1="137.19892104655756" x2="137.19892104655756" y1="485.20111065343923" y2="585.147394451904" stroke="#009090" stroke-width="4.742325631248296" stroke-linecap="round"></line><line x1="137.19892104655756" x2="137.19892104655756" y1="229.20111065343923" y2="329.14739445190406" stroke="#009090" stroke-width="4.742325631248296" stroke-linecap="round"></line><line x1="137.19892104655756" x2="137.19892104655756" y1="-26.79888934656077" y2="73.14739445190405" stroke="#009090" stroke-width="4.742325631248296" stroke-linecap="round"></line><line x1="137.19892104655756" x2="137.19892104655756" y1="-282.79888934656077" y2="-182.85260554809594" stroke="#009090" stroke-width="4.742325631248296" stroke-linecap="round"></line><line x1="137.19892104655756" x2="137.19892104655756" y1="-538.7988893465608" y2="-438.85260554809594" stroke="#009090" stroke-width="4.742325631248296" stroke-linecap="round"></line><line x1="32.17899285397891" x2="32.17899285397891" y1="551.7511258050158" y2="645.8850095206342" stroke="#009090" stroke-width="2.749611935058629" stroke-linecap="round"></line><line x1="32.17899285397891" x2="32.17899285397891" y1="295.7511258050158" y2="389.88500952063424" stroke="#009090" stroke-width="2.749611935058629" stroke-linecap="round"></line><line x1="32.17899285397891" x2="32.17899285397891" y1="39.75112580501582" y2="133.88500952063424" stroke="#009090" stroke-width="2.749611935058629" stroke-linecap="round"></line><line x1="32.17899285397891" x2="32.17899285397891" y1="-216.24887419498418" y2="-122.11499047936576" stroke="#009090" stroke-width="2.749611935058629" stroke-linecap="round"></line><line x1="32.17899285397891" x2="32.17899285397891" y1="-472.2488741949842" y2="-378.11499047936576" stroke="#009090" stroke-width="2.749611935058629" stroke-linecap="round"></line><line x1="311.11391426887536" x2="311.11391426887536" y1="402.4231589384187" y2="534.6564724946761" stroke="#009090" stroke-width="4.523542360346106" stroke-linecap="round"></line><line x1="311.11391426887536" x2="311.11391426887536" y1="146.42315893841868" y2="278.6564724946761" stroke="#009090" stroke-width="4.523542360346106" stroke-linecap="round"></line><line x1="311.11391426887536" x2="311.11391426887536" y1="-109.57684106158132" y2="22.656472494676123" stroke="#009090" stroke-width="4.523542360346106" stroke-linecap="round"></line><line x1="311.11391426887536" x2="311.11391426887536" y1="-365.5768410615813" y2="-233.3435275053239" stroke="#009090" stroke-width="4.523542360346106" stroke-linecap="round"></line><line x1="311.11391426887536" x2="311.11391426887536" y1="-621.5768410615813" y2="-489.3435275053239" stroke="#009090" stroke-width="4.523542360346106" stroke-linecap="round"></line><line x1="-254.00141086763753" x2="-254.00141086763753" y1="503.0230842740511" y2="662.4708760936815" stroke="#009090" stroke-width="2.1830693955150924" stroke-linecap="round"></line><line x1="-254.00141086763753" x2="-254.00141086763753" y1="247.0230842740511" y2="406.4708760936815" stroke="#009090" stroke-width="2.1830693955150924" stroke-linecap="round"></line><line x1="-254.00141086763753" x2="-254.00141086763753" y1="-8.976915725948913" y2="150.4708760936815" stroke="#009090" stroke-width="2.1830693955150924" stroke-linecap="round"></line><line x1="-254.00141086763753" x2="-254.00141086763753" y1="-264.9769157259489" y2="-105.52912390631849" stroke="#009090" stroke-width="2.1830693955150924" stroke-linecap="round"></line><line x1="-254.00141086763753" x2="-254.00141086763753" y1="-520.9769157259489" y2="-361.5291239063185" stroke="#009090" stroke-width="2.1830693955150924" stroke-linecap="round"></line><line x1="-296.2565440012432" x2="-296.2565440012432" y1="427.1168020658374" y2="492.1197099656155" stroke="#009090" stroke-width="3.4223405967079668" stroke-linecap="round"></line><line x1="-296.2565440012432" x2="-296.2565440012432" y1="171.11680206583742" y2="236.11970996561553" stroke="#009090" stroke-width="3.4223405967079668" stroke-linecap="round"></line><line x1="-296.2565440012432" x2="-296.2565440012432" y1="-84.88319793416258" y2="-19.880290034384487" stroke="#009090" stroke-width="3.4223405967079668" stroke-linecap="round"></line><line x1="-296.2565440012432" x2="-296.2565440012432" y1="-340.8831979341626" y2="-275.8802900343845" stroke="#009090" stroke-width="3.4223405967079668" stroke-linecap="round"></line><line x1="-296.2565440012432" x2="-296.2565440012432" y1="-596.8831979341626" y2="-531.8802900343845" stroke="#009090" stroke-width="3.4223405967079668" stroke-linecap="round"></line><line x1="-58.08501054623946" x2="-58.08501054623946" y1="412.4964821605598" y2="505.15755518152446" stroke="#009090" stroke-width="0.6482399140853334" stroke-linecap="round"></line><line x1="-58.08501054623946" x2="-58.08501054623946" y1="156.49648216055982" y2="249.15755518152446" stroke="#009090" stroke-width="0.6482399140853334" stroke-linecap="round"></line><line x1="-58.08501054623946" x2="-58.08501054623946" y1="-99.50351783944018" y2="-6.842444818475556" stroke="#009090" stroke-width="0.6482399140853334" stroke-linecap="round"></line><line x1="-58.08501054623946" x2="-58.08501054623946" y1="-355.5035178394402" y2="-262.84244481847554" stroke="#009090" stroke-width="0.6482399140853334" stroke-linecap="round"></line><line x1="-58.08501054623946" x2="-58.08501054623946" y1="-611.5035178394402" y2="-518.8424448184755" stroke="#009090" stroke-width="0.6482399140853334" stroke-linecap="round"></line><line x1="-166.62252226748947" x2="-166.62252226748947" y1="470.12375258424197" y2="544.305386417285" stroke="#009090" stroke-width="4.668324588964325" stroke-linecap="round"></line><line x1="-166.62252226748947" x2="-166.62252226748947" y1="214.12375258424197" y2="288.3053864172851" stroke="#009090" stroke-width="4.668324588964325" stroke-linecap="round"></line><line x1="-166.62252226748947" x2="-166.62252226748947" y1="-41.87624741575803" y2="32.30538641728508" stroke="#009090" stroke-width="4.668324588964325" stroke-linecap="round"></line><line x1="-166.62252226748947" x2="-166.62252226748947" y1="-297.87624741575803" y2="-223.6946135827149" stroke="#009090" stroke-width="4.668324588964325" stroke-linecap="round"></line><line x1="-166.62252226748947" x2="-166.62252226748947" y1="-553.876247415758" y2="-479.6946135827149" stroke="#009090" stroke-width="4.668324588964325" stroke-linecap="round"></line><line x1="299.2013059786076" x2="299.2013059786076" y1="546.6236096335315" y2="605.1409659353154" stroke="#009090" stroke-width="1.7889968365902498" stroke-linecap="round"></line><line x1="299.2013059786076" x2="299.2013059786076" y1="290.6236096335315" y2="349.1409659353155" stroke="#009090" stroke-width="1.7889968365902498" stroke-linecap="round"></line><line x1="299.2013059786076" x2="299.2013059786076" y1="34.62360963353149" y2="93.14096593531546" stroke="#009090" stroke-width="1.7889968365902498" stroke-linecap="round"></line><line x1="299.2013059786076" x2="299.2013059786076" y1="-221.3763903664685" y2="-162.85903406468452" stroke="#009090" stroke-width="1.7889968365902498" stroke-linecap="round"></line><line x1="299.2013059786076" x2="299.2013059786076" y1="-477.3763903664685" y2="-418.8590340646845" stroke="#009090" stroke-width="1.7889968365902498" stroke-linecap="round"></line><line x1="-119.22880530448609" x2="-119.22880530448609" y1="630.407328888125" y2="756.5325641691443" stroke="#009090" stroke-width="0.9260123479026239" stroke-linecap="round"></line><line x1="-119.22880530448609" x2="-119.22880530448609" y1="374.40732888812505" y2="500.5325641691443" stroke="#009090" stroke-width="0.9260123479026239" stroke-linecap="round"></line><line x1="-119.22880530448609" x2="-119.22880530448609" y1="118.40732888812505" y2="244.53256416914428" stroke="#009090" stroke-width="0.9260123479026239" stroke-linecap="round"></line><line x1="-119.22880530448609" x2="-119.22880530448609" y1="-137.59267111187495" y2="-11.46743583085572" stroke="#009090" stroke-width="0.9260123479026239" stroke-linecap="round"></line><line x1="-119.22880530448609" x2="-119.22880530448609" y1="-393.59267111187495" y2="-267.4674358308557" stroke="#009090" stroke-width="0.9260123479026239" stroke-linecap="round"></line><line x1="-127.25434483636519" x2="-127.25434483636519" y1="599.375813517544" y2="684.3485145133872" stroke="#009090" stroke-width="2.4389078894273366" stroke-linecap="round"></line><line x1="-127.25434483636519" x2="-127.25434483636519" y1="343.3758135175439" y2="428.34851451338716" stroke="#009090" stroke-width="2.4389078894273366" stroke-linecap="round"></line><line x1="-127.25434483636519" x2="-127.25434483636519" y1="87.37581351754392" y2="172.34851451338716" stroke="#009090" stroke-width="2.4389078894273366" stroke-linecap="round"></line><line x1="-127.25434483636519" x2="-127.25434483636519" y1="-168.62418648245608" y2="-83.65148548661284" stroke="#009090" stroke-width="2.4389078894273366" stroke-linecap="round"></line><line x1="-127.25434483636519" x2="-127.25434483636519" y1="-424.6241864824561" y2="-339.65148548661284" stroke="#009090" stroke-width="2.4389078894273366" stroke-linecap="round"></line><line x1="287.15832882675073" x2="287.15832882675073" y1="577.4590741041943" y2="703.8472328423427" stroke="#009090" stroke-width="1.8293137687240713" stroke-linecap="round"></line><line x1="287.15832882675073" x2="287.15832882675073" y1="321.45907410419437" y2="447.84723284234263" stroke="#009090" stroke-width="1.8293137687240713" stroke-linecap="round"></line><line x1="287.15832882675073" x2="287.15832882675073" y1="65.45907410419437" y2="191.84723284234263" stroke="#009090" stroke-width="1.8293137687240713" stroke-linecap="round"></line><line x1="287.15832882675073" x2="287.15832882675073" y1="-190.54092589580563" y2="-64.15276715765737" stroke="#009090" stroke-width="1.8293137687240713" stroke-linecap="round"></line><line x1="287.15832882675073" x2="287.15832882675073" y1="-446.54092589580563" y2="-320.15276715765737" stroke="#009090" stroke-width="1.8293137687240713" stroke-linecap="round"></line><line x1="-124.82236992504596" x2="-124.82236992504596" y1="560.9786414573657" y2="710.8193298831912" stroke="#009090" stroke-width="1.5048645584369802" stroke-linecap="round"></line><line x1="-124.82236992504596" x2="-124.82236992504596" y1="304.97864145736577" y2="454.81932988319124" stroke="#009090" stroke-width="1.5048645584369802" stroke-linecap="round"></line><line x1="-124.82236992504596" x2="-124.82236992504596" y1="48.97864145736577" y2="198.81932988319124" stroke="#009090" stroke-width="1.5048645584369802" stroke-linecap="round"></line><line x1="-124.82236992504596" x2="-124.82236992504596" y1="-207.02135854263423" y2="-57.180670116808756" stroke="#009090" stroke-width="1.5048645584369802" stroke-linecap="round"></line><line x1="-124.82236992504596" x2="-124.82236992504596" y1="-463.02135854263423" y2="-313.18067011680876" stroke="#009090" stroke-width="1.5048645584369802" stroke-linecap="round"></line><line x1="-205.54720541506313" x2="-205.54720541506313" y1="452.69748779208913" y2="601.0120323934146" stroke="#009090" stroke-width="1.2181406133758999" stroke-linecap="round"></line><line x1="-205.54720541506313" x2="-205.54720541506313" y1="196.69748779208913" y2="345.01203239341464" stroke="#009090" stroke-width="1.2181406133758999" stroke-linecap="round"></line><line x1="-205.54720541506313" x2="-205.54720541506313" y1="-59.302512207910866" y2="89.01203239341463" stroke="#009090" stroke-width="1.2181406133758999" stroke-linecap="round"></line><line x1="-205.54720541506313" x2="-205.54720541506313" y1="-315.30251220791087" y2="-166.98796760658536" stroke="#009090" stroke-width="1.2181406133758999" stroke-linecap="round"></line><line x1="-205.54720541506313" x2="-205.54720541506313" y1="-571.3025122079109" y2="-422.98796760658536" stroke="#009090" stroke-width="1.2181406133758999" stroke-linecap="round"></line><line x1="145.19150559161602" x2="145.19150559161602" y1="404.9697884776746" y2="546.5624981164032" stroke="#009090" stroke-width="4.866894464847236" stroke-linecap="round"></line><line x1="145.19150559161602" x2="145.19150559161602" y1="148.96978847767463" y2="290.56249811640316" stroke="#009090" stroke-width="4.866894464847236" stroke-linecap="round"></line><line x1="145.19150559161602" x2="145.19150559161602" y1="-107.03021152232537" y2="34.56249811640318" stroke="#009090" stroke-width="4.866894464847236" stroke-linecap="round"></line><line x1="145.19150559161602" x2="145.19150559161602" y1="-363.0302115223254" y2="-221.43750188359684" stroke="#009090" stroke-width="4.866894464847236" stroke-linecap="round"></line><line x1="145.19150559161602" x2="145.19150559161602" y1="-619.0302115223253" y2="-477.43750188359684" stroke="#009090" stroke-width="4.866894464847236" stroke-linecap="round"></line></g>
      <g class="ld ld-speed-dash-2"><line x1="17.41257700877398" x2="17.41257700877398" y1="633.4164345667177" y2="731.8735050350765" stroke="#009090" stroke-width="3.9265734364618066" stroke-linecap="round"></line><line x1="17.41257700877398" x2="17.41257700877398" y1="377.4164345667178" y2="475.8735050350765" stroke="#009090" stroke-width="3.9265734364618066" stroke-linecap="round"></line><line x1="17.41257700877398" x2="17.41257700877398" y1="121.41643456671778" y2="219.8735050350765" stroke="#009090" stroke-width="3.9265734364618066" stroke-linecap="round"></line><line x1="17.41257700877398" x2="17.41257700877398" y1="-134.58356543328222" y2="-36.126494964923495" stroke="#009090" stroke-width="3.9265734364618066" stroke-linecap="round"></line><line x1="17.41257700877398" x2="17.41257700877398" y1="-390.5835654332822" y2="-292.1264949649235" stroke="#009090" stroke-width="3.9265734364618066" stroke-linecap="round"></line><line x1="250.15085836666202" x2="250.15085836666202" y1="488.45862287661635" y2="648.0736081559673" stroke="#009090" stroke-width="4.476500064860919" stroke-linecap="round"></line><line x1="250.15085836666202" x2="250.15085836666202" y1="232.45862287661635" y2="392.0736081559673" stroke="#009090" stroke-width="4.476500064860919" stroke-linecap="round"></line><line x1="250.15085836666202" x2="250.15085836666202" y1="-23.541377123383654" y2="136.0736081559673" stroke="#009090" stroke-width="4.476500064860919" stroke-linecap="round"></line><line x1="250.15085836666202" x2="250.15085836666202" y1="-279.54137712338365" y2="-119.92639184403271" stroke="#009090" stroke-width="4.476500064860919" stroke-linecap="round"></line><line x1="250.15085836666202" x2="250.15085836666202" y1="-535.5413771233837" y2="-375.9263918440327" stroke="#009090" stroke-width="4.476500064860919" stroke-linecap="round"></line><line x1="-136.99369785550147" x2="-136.99369785550147" y1="474.74313773927366" y2="545.7465464755286" stroke="#009090" stroke-width="0.16747200450145883" stroke-linecap="round"></line><line x1="-136.99369785550147" x2="-136.99369785550147" y1="218.74313773927366" y2="289.7465464755286" stroke="#009090" stroke-width="0.16747200450145883" stroke-linecap="round"></line><line x1="-136.99369785550147" x2="-136.99369785550147" y1="-37.256862260726336" y2="33.7465464755286" stroke="#009090" stroke-width="0.16747200450145883" stroke-linecap="round"></line><line x1="-136.99369785550147" x2="-136.99369785550147" y1="-293.25686226072634" y2="-222.2534535244714" stroke="#009090" stroke-width="0.16747200450145883" stroke-linecap="round"></line><line x1="-136.99369785550147" x2="-136.99369785550147" y1="-549.2568622607264" y2="-478.2534535244714" stroke="#009090" stroke-width="0.16747200450145883" stroke-linecap="round"></line><line x1="203.77095833129346" x2="203.77095833129346" y1="508.93335691751787" y2="572.6677262326007" stroke="#009090" stroke-width="0.9827297803990198" stroke-linecap="round"></line><line x1="203.77095833129346" x2="203.77095833129346" y1="252.93335691751787" y2="316.6677262326007" stroke="#009090" stroke-width="0.9827297803990198" stroke-linecap="round"></line><line x1="203.77095833129346" x2="203.77095833129346" y1="-3.0666430824821305" y2="60.667726232600714" stroke="#009090" stroke-width="0.9827297803990198" stroke-linecap="round"></line><line x1="203.77095833129346" x2="203.77095833129346" y1="-259.06664308248213" y2="-195.33227376739927" stroke="#009090" stroke-width="0.9827297803990198" stroke-linecap="round"></line><line x1="203.77095833129346" x2="203.77095833129346" y1="-515.0666430824822" y2="-451.3322737673993" stroke="#009090" stroke-width="0.9827297803990198" stroke-linecap="round"></line><line x1="-73.96340138422346" x2="-73.96340138422346" y1="528.4246658972545" y2="590.4998294515041" stroke="#009090" stroke-width="3.935258236799515" stroke-linecap="round"></line><line x1="-73.96340138422346" x2="-73.96340138422346" y1="272.42466589725444" y2="334.49982945150407" stroke="#009090" stroke-width="3.935258236799515" stroke-linecap="round"></line><line x1="-73.96340138422346" x2="-73.96340138422346" y1="16.424665897254442" y2="78.49982945150408" stroke="#009090" stroke-width="3.935258236799515" stroke-linecap="round"></line><line x1="-73.96340138422346" x2="-73.96340138422346" y1="-239.57533410274556" y2="-177.50017054849593" stroke="#009090" stroke-width="3.935258236799515" stroke-linecap="round"></line><line x1="-73.96340138422346" x2="-73.96340138422346" y1="-495.57533410274556" y2="-433.50017054849593" stroke="#009090" stroke-width="3.935258236799515" stroke-linecap="round"></line><line x1="136.4075638436337" x2="136.4075638436337" y1="496.91790342178996" y2="675.6130859013113" stroke="#009090" stroke-width="4.955367273318655" stroke-linecap="round"></line><line x1="136.4075638436337" x2="136.4075638436337" y1="240.91790342178996" y2="419.6130859013112" stroke="#009090" stroke-width="4.955367273318655" stroke-linecap="round"></line><line x1="136.4075638436337" x2="136.4075638436337" y1="-15.082096578210042" y2="163.6130859013112" stroke="#009090" stroke-width="4.955367273318655" stroke-linecap="round"></line><line x1="136.4075638436337" x2="136.4075638436337" y1="-271.08209657821004" y2="-92.3869140986888" stroke="#009090" stroke-width="4.955367273318655" stroke-linecap="round"></line><line x1="136.4075638436337" x2="136.4075638436337" y1="-527.08209657821" y2="-348.3869140986888" stroke="#009090" stroke-width="4.955367273318655" stroke-linecap="round"></line><line x1="21.58401023358209" x2="21.58401023358209" y1="618.2838937557971" y2="742.8419339267839" stroke="#009090" stroke-width="0.4963588795777607" stroke-linecap="round"></line><line x1="21.58401023358209" x2="21.58401023358209" y1="362.28389375579707" y2="486.84193392678384" stroke="#009090" stroke-width="0.4963588795777607" stroke-linecap="round"></line><line x1="21.58401023358209" x2="21.58401023358209" y1="106.28389375579707" y2="230.84193392678384" stroke="#009090" stroke-width="0.4963588795777607" stroke-linecap="round"></line><line x1="21.58401023358209" x2="21.58401023358209" y1="-149.71610624420293" y2="-25.158066073216162" stroke="#009090" stroke-width="0.4963588795777607" stroke-linecap="round"></line><line x1="21.58401023358209" x2="21.58401023358209" y1="-405.71610624420293" y2="-281.15806607321616" stroke="#009090" stroke-width="0.4963588795777607" stroke-linecap="round"></line><line x1="-231.1062423696579" x2="-231.1062423696579" y1="562.0834088170691" y2="718.8068382385597" stroke="#009090" stroke-width="1.3286290795408218" stroke-linecap="round"></line><line x1="-231.1062423696579" x2="-231.1062423696579" y1="306.0834088170691" y2="462.8068382385598" stroke="#009090" stroke-width="1.3286290795408218" stroke-linecap="round"></line><line x1="-231.1062423696579" x2="-231.1062423696579" y1="50.083408817069085" y2="206.8068382385598" stroke="#009090" stroke-width="1.3286290795408218" stroke-linecap="round"></line><line x1="-231.1062423696579" x2="-231.1062423696579" y1="-205.91659118293092" y2="-49.193161761440194" stroke="#009090" stroke-width="1.3286290795408218" stroke-linecap="round"></line><line x1="-231.1062423696579" x2="-231.1062423696579" y1="-461.9165911829309" y2="-305.1931617614402" stroke="#009090" stroke-width="1.3286290795408218" stroke-linecap="round"></line><line x1="-71.38762130753605" x2="-71.38762130753605" y1="391.989330346385" y2="482.7058258693227" stroke="#009090" stroke-width="2.954549033277697" stroke-linecap="round"></line><line x1="-71.38762130753605" x2="-71.38762130753605" y1="135.98933034638497" y2="226.70582586932272" stroke="#009090" stroke-width="2.954549033277697" stroke-linecap="round"></line><line x1="-71.38762130753605" x2="-71.38762130753605" y1="-120.01066965361503" y2="-29.29417413067729" stroke="#009090" stroke-width="2.954549033277697" stroke-linecap="round"></line><line x1="-71.38762130753605" x2="-71.38762130753605" y1="-376.010669653615" y2="-285.2941741306773" stroke="#009090" stroke-width="2.954549033277697" stroke-linecap="round"></line><line x1="-71.38762130753605" x2="-71.38762130753605" y1="-632.010669653615" y2="-541.2941741306773" stroke="#009090" stroke-width="2.954549033277697" stroke-linecap="round"></line><line x1="-243.54677711680864" x2="-243.54677711680864" y1="513.0169817433197" y2="588.8569071650398" stroke="#009090" stroke-width="2.8226743623068096" stroke-linecap="round"></line><line x1="-243.54677711680864" x2="-243.54677711680864" y1="257.01698174331966" y2="332.85690716503984" stroke="#009090" stroke-width="2.8226743623068096" stroke-linecap="round"></line><line x1="-243.54677711680864" x2="-243.54677711680864" y1="1.0169817433196613" y2="76.85690716503986" stroke="#009090" stroke-width="2.8226743623068096" stroke-linecap="round"></line><line x1="-243.54677711680864" x2="-243.54677711680864" y1="-254.98301825668034" y2="-179.14309283496016" stroke="#009090" stroke-width="2.8226743623068096" stroke-linecap="round"></line><line x1="-243.54677711680864" x2="-243.54677711680864" y1="-510.98301825668034" y2="-435.14309283496016" stroke="#009090" stroke-width="2.8226743623068096" stroke-linecap="round"></line><line x1="307.8322175642013" x2="307.8322175642013" y1="492.9901088386046" y2="659.6697857143076" stroke="#009090" stroke-width="1.7236299950345046" stroke-linecap="round"></line><line x1="307.8322175642013" x2="307.8322175642013" y1="236.9901088386046" y2="403.6697857143076" stroke="#009090" stroke-width="1.7236299950345046" stroke-linecap="round"></line><line x1="307.8322175642013" x2="307.8322175642013" y1="-19.009891161395387" y2="147.66978571430758" stroke="#009090" stroke-width="1.7236299950345046" stroke-linecap="round"></line><line x1="307.8322175642013" x2="307.8322175642013" y1="-275.0098911613954" y2="-108.33021428569242" stroke="#009090" stroke-width="1.7236299950345046" stroke-linecap="round"></line><line x1="307.8322175642013" x2="307.8322175642013" y1="-531.0098911613954" y2="-364.3302142856924" stroke="#009090" stroke-width="1.7236299950345046" stroke-linecap="round"></line><line x1="-61.6327997401973" x2="-61.6327997401973" y1="459.06023884694173" y2="604.9499465027993" stroke="#009090" stroke-width="1.62680121476393" stroke-linecap="round"></line><line x1="-61.6327997401973" x2="-61.6327997401973" y1="203.06023884694173" y2="348.9499465027993" stroke="#009090" stroke-width="1.62680121476393" stroke-linecap="round"></line><line x1="-61.6327997401973" x2="-61.6327997401973" y1="-52.93976115305827" y2="92.9499465027993" stroke="#009090" stroke-width="1.62680121476393" stroke-linecap="round"></line><line x1="-61.6327997401973" x2="-61.6327997401973" y1="-308.93976115305827" y2="-163.05005349720068" stroke="#009090" stroke-width="1.62680121476393" stroke-linecap="round"></line><line x1="-61.6327997401973" x2="-61.6327997401973" y1="-564.9397611530583" y2="-419.0500534972007" stroke="#009090" stroke-width="1.62680121476393" stroke-linecap="round"></line><line x1="32.63054939472951" x2="32.63054939472951" y1="406.89148365991497" y2="550.5858530074443" stroke="#009090" stroke-width="3.987641320223594" stroke-linecap="round"></line><line x1="32.63054939472951" x2="32.63054939472951" y1="150.89148365991497" y2="294.58585300744426" stroke="#009090" stroke-width="3.987641320223594" stroke-linecap="round"></line><line x1="32.63054939472951" x2="32.63054939472951" y1="-105.10851634008503" y2="38.58585300744424" stroke="#009090" stroke-width="3.987641320223594" stroke-linecap="round"></line><line x1="32.63054939472951" x2="32.63054939472951" y1="-361.10851634008503" y2="-217.41414699255574" stroke="#009090" stroke-width="3.987641320223594" stroke-linecap="round"></line><line x1="32.63054939472951" x2="32.63054939472951" y1="-617.1085163400851" y2="-473.41414699255574" stroke="#009090" stroke-width="3.987641320223594" stroke-linecap="round"></line><line x1="97.51982623297607" x2="97.51982623297607" y1="570.5413813205212" y2="717.8758984474089" stroke="#009090" stroke-width="0.601955339289818" stroke-linecap="round"></line><line x1="97.51982623297607" x2="97.51982623297607" y1="314.54138132052117" y2="461.8758984474089" stroke="#009090" stroke-width="0.601955339289818" stroke-linecap="round"></line><line x1="97.51982623297607" x2="97.51982623297607" y1="58.54138132052117" y2="205.87589844740887" stroke="#009090" stroke-width="0.601955339289818" stroke-linecap="round"></line><line x1="97.51982623297607" x2="97.51982623297607" y1="-197.45861867947883" y2="-50.12410155259113" stroke="#009090" stroke-width="0.601955339289818" stroke-linecap="round"></line><line x1="97.51982623297607" x2="97.51982623297607" y1="-453.45861867947883" y2="-306.1241015525911" stroke="#009090" stroke-width="0.601955339289818" stroke-linecap="round"></line><line x1="-42.33844812572016" x2="-42.33844812572016" y1="499.6878293025005" y2="600.1451849855379" stroke="#009090" stroke-width="2.9663524647535766" stroke-linecap="round"></line><line x1="-42.33844812572016" x2="-42.33844812572016" y1="243.68782930250052" y2="344.14518498553787" stroke="#009090" stroke-width="2.9663524647535766" stroke-linecap="round"></line><line x1="-42.33844812572016" x2="-42.33844812572016" y1="-12.312170697499482" y2="88.14518498553788" stroke="#009090" stroke-width="2.9663524647535766" stroke-linecap="round"></line><line x1="-42.33844812572016" x2="-42.33844812572016" y1="-268.3121706974995" y2="-167.85481501446213" stroke="#009090" stroke-width="2.9663524647535766" stroke-linecap="round"></line><line x1="-42.33844812572016" x2="-42.33844812572016" y1="-524.3121706974995" y2="-423.85481501446213" stroke="#009090" stroke-width="2.9663524647535766" stroke-linecap="round"></line><line x1="-297.1398799747435" x2="-297.1398799747435" y1="597.9466911564809" y2="772.4525033100927" stroke="#009090" stroke-width="0.48243874461516456" stroke-linecap="round"></line><line x1="-297.1398799747435" x2="-297.1398799747435" y1="341.946691156481" y2="516.4525033100927" stroke="#009090" stroke-width="0.48243874461516456" stroke-linecap="round"></line><line x1="-297.1398799747435" x2="-297.1398799747435" y1="85.946691156481" y2="260.45250331009265" stroke="#009090" stroke-width="0.48243874461516456" stroke-linecap="round"></line><line x1="-297.1398799747435" x2="-297.1398799747435" y1="-170.053308843519" y2="4.452503310092652" stroke="#009090" stroke-width="0.48243874461516456" stroke-linecap="round"></line><line x1="-297.1398799747435" x2="-297.1398799747435" y1="-426.053308843519" y2="-251.54749668990735" stroke="#009090" stroke-width="0.48243874461516456" stroke-linecap="round"></line><line x1="-254.13579745130733" x2="-254.13579745130733" y1="395.4517243970902" y2="490.5173595825804" stroke="#009090" stroke-width="4.581808241689548" stroke-linecap="round"></line><line x1="-254.13579745130733" x2="-254.13579745130733" y1="139.45172439709017" y2="234.5173595825804" stroke="#009090" stroke-width="4.581808241689548" stroke-linecap="round"></line><line x1="-254.13579745130733" x2="-254.13579745130733" y1="-116.54827560290983" y2="-21.482640417419574" stroke="#009090" stroke-width="4.581808241689548" stroke-linecap="round"></line><line x1="-254.13579745130733" x2="-254.13579745130733" y1="-372.5482756029098" y2="-277.4826404174196" stroke="#009090" stroke-width="4.581808241689548" stroke-linecap="round"></line><line x1="-254.13579745130733" x2="-254.13579745130733" y1="-628.5482756029098" y2="-533.4826404174196" stroke="#009090" stroke-width="4.581808241689548" stroke-linecap="round"></line><line x1="268.5362294702709" x2="268.5362294702709" y1="594.6595499992616" y2="666.3039479772523" stroke="#009090" stroke-width="2.1916655910847496" stroke-linecap="round"></line><line x1="268.5362294702709" x2="268.5362294702709" y1="338.6595499992615" y2="410.3039479772523" stroke="#009090" stroke-width="2.1916655910847496" stroke-linecap="round"></line><line x1="268.5362294702709" x2="268.5362294702709" y1="82.65954999926151" y2="154.30394797725228" stroke="#009090" stroke-width="2.1916655910847496" stroke-linecap="round"></line><line x1="268.5362294702709" x2="268.5362294702709" y1="-173.34045000073849" y2="-101.69605202274772" stroke="#009090" stroke-width="2.1916655910847496" stroke-linecap="round"></line><line x1="268.5362294702709" x2="268.5362294702709" y1="-429.3404500007385" y2="-357.6960520227477" stroke="#009090" stroke-width="2.1916655910847496" stroke-linecap="round"></line><line x1="42.807375446673746" x2="42.807375446673746" y1="474.46598840656185" y2="541.5139377806066" stroke="#009090" stroke-width="2.7448278715392394" stroke-linecap="round"></line><line x1="42.807375446673746" x2="42.807375446673746" y1="218.46598840656185" y2="285.5139377806066" stroke="#009090" stroke-width="2.7448278715392394" stroke-linecap="round"></line><line x1="42.807375446673746" x2="42.807375446673746" y1="-37.53401159343815" y2="29.51393778060661" stroke="#009090" stroke-width="2.7448278715392394" stroke-linecap="round"></line><line x1="42.807375446673746" x2="42.807375446673746" y1="-293.53401159343815" y2="-226.48606221939338" stroke="#009090" stroke-width="2.7448278715392394" stroke-linecap="round"></line><line x1="42.807375446673746" x2="42.807375446673746" y1="-549.5340115934382" y2="-482.4860622193934" stroke="#009090" stroke-width="2.7448278715392394" stroke-linecap="round"></line><line x1="318.09456700352854" x2="318.09456700352854" y1="488.2525775241041" y2="609.8025440787649" stroke="#009090" stroke-width="1.2385221126031176" stroke-linecap="round"></line><line x1="318.09456700352854" x2="318.09456700352854" y1="232.25257752410408" y2="353.80254407876487" stroke="#009090" stroke-width="1.2385221126031176" stroke-linecap="round"></line><line x1="318.09456700352854" x2="318.09456700352854" y1="-23.747422475895917" y2="97.80254407876488" stroke="#009090" stroke-width="1.2385221126031176" stroke-linecap="round"></line><line x1="318.09456700352854" x2="318.09456700352854" y1="-279.7474224758959" y2="-158.19745592123513" stroke="#009090" stroke-width="1.2385221126031176" stroke-linecap="round"></line><line x1="318.09456700352854" x2="318.09456700352854" y1="-535.747422475896" y2="-414.19745592123513" stroke="#009090" stroke-width="1.2385221126031176" stroke-linecap="round"></line></g>
    </g>
    <g transform="translate(0,0)"><g class="path" style="transform: scale(0.91); transform-origin: -126.17px -3.98216px; animation: 1s linear -0.586667s infinite normal forwards running breath-caeadb92-396d-4954-afa5-bcb041b44a20;"><path d="M36.77-37.34L36.77-25.73L28.51-25.73L28.51-29.47L25.44-29.47L25.44-7.87L28.80-7.87L28.80 0L8.64 0L8.64-7.87L12-7.87L12-29.47L8.93-29.47L8.93-25.73L0.67-25.73L0.67-37.34L36.77-37.34" fill="#ffffff" stroke="none" stroke-width="none" transform="translate(-144.88999938964844,14.687840372721347)" style="fill: rgb(255, 255, 255);"></path></g><g class="path" style="transform: scale(0.91); transform-origin: -92.33px 6.55284px; animation: 1s linear -0.513333s infinite normal forwards running breath-caeadb92-396d-4954-afa5-bcb041b44a20;"><path d="M53.86-26.69L67.20-26.69L67.20-18.82L65.38-18.82L59.09-2.16L59.09-2.16Q56.74 4.13 53.71 7.27L53.71 7.27L53.71 7.27Q50.69 10.42 45.74 10.42L45.74 10.42L45.74 10.42Q43.73 10.42 41.66 10.01L41.66 10.01L41.66 10.01Q39.60 9.60 37.92 8.88L37.92 8.88L37.92 0.19L44.54 0.19L44.54 0.67L44.54 0.67Q44.54 1.87 45.79 1.87L45.79 1.87L45.79 1.87Q46.90 1.87 47.47 0.82L47.47 0.82L39.89-18.82L38.06-18.82L38.06-26.69L52.32-26.69L52.32-18.82L50.69-18.82L53.18-11.33L55.49-18.82L53.86-18.82L53.86-26.69" fill="#ffffff" stroke="none" stroke-width="none" transform="translate(-144.88999938964844,14.687840372721347)" style="fill: rgb(255, 255, 255);"></path></g><g class="path" style="transform: scale(0.91); transform-origin: -68.62px -3.95716px; animation: 1s linear -0.44s infinite normal forwards running breath-caeadb92-396d-4954-afa5-bcb041b44a20;"><path d="M83.90 0.05L68.64 0.05L68.64-7.87L70.75-7.87L70.75-29.47L68.64-29.47L68.64-37.34L81.79-37.34L81.79-7.87L83.90-7.87L83.90 0.05" fill="#ffffff" stroke="none" stroke-width="none" transform="translate(-144.88999938964844,14.687840372721347)" style="fill: rgb(255, 255, 255);"></path></g><g class="path" style="transform: scale(0.91); transform-origin: -46.01px 1.34284px; animation: 1s linear -0.366667s infinite normal forwards running breath-caeadb92-396d-4954-afa5-bcb041b44a20;"><path d="M99.74 0.67L99.74 0.67Q92.93 0.67 89.09-2.90L89.09-2.90L89.09-2.90Q85.25-6.48 85.25-13.34L85.25-13.34L85.25-13.34Q85.25-20.21 89.09-23.78L89.09-23.78L89.09-23.78Q92.93-27.36 99.74-27.36L99.74-27.36L99.74-27.36Q106.51-27.36 109.51-23.83L109.51-23.83L109.51-23.83Q112.51-20.30 112.51-15.07L112.51-15.07L112.51-11.62L96.96-11.62L96.96-11.33L96.96-11.33Q96.96-9.55 98.02-8.71L98.02-8.71L98.02-8.71Q99.07-7.87 101.52-7.87L101.52-7.87L101.52-7.87Q104.45-7.87 107.09-8.30L107.09-8.30L107.09-8.30Q109.73-8.74 111.70-9.41L111.70-9.41L111.70-1.73L111.70-1.73Q110.02-0.82 106.78-0.07L106.78-0.07L106.78-0.07Q103.54 0.67 99.74 0.67L99.74 0.67zM96.96-16.90L102.53-16.90L102.53-17.47L102.53-17.47Q102.53-19.10 101.83-19.82L101.83-19.82L101.83-19.82Q101.14-20.54 99.74-20.54L99.74-20.54L99.74-20.54Q98.35-20.54 97.66-19.80L97.66-19.80L97.66-19.80Q96.96-19.06 96.96-17.47L96.96-17.47L96.96-16.90" fill="#ffffff" stroke="none" stroke-width="none" transform="translate(-144.88999938964844,14.687840372721347)" style="fill: rgb(255, 255, 255);"></path></g><g class="path" style="transform: scale(0.91); transform-origin: -19.01px 1.00784px; animation: 1s linear -0.293333s infinite normal forwards running breath-caeadb92-396d-4954-afa5-bcb041b44a20;"><path d="M134.45-27.36L134.45-27.36Q135.41-27.36 136.27-27.17L136.27-27.17L136.27-27.17Q137.14-26.98 137.71-26.69L137.71-26.69L137.71-17.52L137.71-17.52Q135.74-18.34 133.49-18.34L133.49-18.34L133.49-18.34Q130.46-18.34 128.83-16.75L128.83-16.75L128.83-16.75Q127.20-15.17 127.20-12.05L127.20-12.05L127.20-7.87L131.52-7.87L131.52 0L114.05 0L114.05-7.87L116.16-7.87L116.16-18.82L114.05-18.82L114.05-26.69L127.20-26.69L127.20-23.18L127.20-23.18Q128.54-25.20 130.27-26.28L130.27-26.28L130.27-26.28Q132-27.36 134.45-27.36L134.45-27.36" fill="#ffffff" stroke="none" stroke-width="none" transform="translate(-144.88999938964844,14.687840372721347)" style="fill: rgb(255, 255, 255);"></path></g><g class="path" style="transform: scale(0.91); transform-origin: 27.33px -3.98216px; animation: 1s linear -0.22s infinite normal forwards running breath-caeadb92-396d-4954-afa5-bcb041b44a20;"><path d="M153.74 0L153.74-7.87L156.14-7.87L156.14-29.42L153.74-29.42L153.74-37.34L173.23-37.34L173.23-37.34Q181.25-37.34 185.98-32.95L185.98-32.95L185.98-32.95Q190.70-28.56 190.70-18.67L190.70-18.67L190.70-18.67Q190.70-8.78 185.98-4.39L185.98-4.39L185.98-4.39Q181.25 0 173.23 0L173.23 0L153.74 0zM169.58-7.87L172.37-7.87L172.37-7.87Q174-7.87 174.82-8.74L174.82-8.74L174.82-8.74Q175.63-9.60 175.63-11.42L175.63-11.42L175.63-25.92L175.63-25.92Q175.63-29.47 172.37-29.47L172.37-29.47L169.58-29.47L169.58-7.87" fill="#ffffff" stroke="none" stroke-width="none" transform="translate(-144.88999938964844,14.687840372721347)" style="fill: rgb(255, 255, 255);"></path></g><g class="path" style="transform: scale(0.91); transform-origin: 62.995px 1.67784px; animation: 1s linear -0.146667s infinite normal forwards running breath-caeadb92-396d-4954-afa5-bcb041b44a20;"><path d="M221.71-7.87L223.82-7.87L223.82 0L210.67 0L210.67-3.74L210.67-3.74Q207.22 0.67 202.03 0.67L202.03 0.67L202.03 0.67Q198.05 0.67 196.06-1.82L196.06-1.82L196.06-1.82Q194.06-4.32 194.06-8.69L194.06-8.69L194.06-18.82L191.95-18.82L191.95-26.69L205.10-26.69L205.10-10.94L205.10-10.94Q205.10-9.36 205.80-8.62L205.80-8.62L205.80-8.62Q206.50-7.87 207.89-7.87L207.89-7.87L207.89-7.87Q209.28-7.87 209.98-8.62L209.98-8.62L209.98-8.62Q210.67-9.36 210.67-10.94L210.67-10.94L210.67-18.82L208.08-18.82L208.08-26.69L221.71-26.69L221.71-7.87" fill="#ffffff" stroke="none" stroke-width="none" transform="translate(-144.88999938964844,14.687840372721347)" style="fill: rgb(255, 255, 255);"></path></g><g class="path" style="transform: scale(0.91); transform-origin: 96.215px 1.00784px; animation: 1s linear -0.0733333s infinite normal forwards running breath-caeadb92-396d-4954-afa5-bcb041b44a20;"><path d="M254.93-7.87L257.04-7.87L257.04 0L241.87 0L241.87-7.87L243.89-7.87L243.89-15.74L243.89-15.74Q243.89-17.33 243.22-18.07L243.22-18.07L243.22-18.07Q242.54-18.82 241.20-18.82L241.20-18.82L241.20-18.82Q238.32-18.82 238.32-15.74L238.32-15.74L238.32-7.87L240.34-7.87L240.34 0L225.17 0L225.17-7.87L227.28-7.87L227.28-18.82L225.17-18.82L225.17-26.69L238.32-26.69L238.32-22.94L238.32-22.94Q241.78-27.36 246.96-27.36L246.96-27.36L246.96-27.36Q250.94-27.36 252.94-24.86L252.94-24.86L252.94-24.86Q254.93-22.37 254.93-18L254.93-18L254.93-7.87" fill="#ffffff" stroke="none" stroke-width="none" transform="translate(-144.88999938964844,14.687840372721347)" style="fill: rgb(255, 255, 255);"></path></g><g class="path" style="transform: scale(0.91); transform-origin: 129.625px 1.00784px; animation: 1s linear 0s infinite normal forwards running breath-caeadb92-396d-4954-afa5-bcb041b44a20;"><path d="M288.34-7.87L290.45-7.87L290.45 0L275.28 0L275.28-7.87L277.30-7.87L277.30-15.74L277.30-15.74Q277.30-17.33 276.62-18.07L276.62-18.07L276.62-18.07Q275.95-18.82 274.61-18.82L274.61-18.82L274.61-18.82Q271.73-18.82 271.73-15.74L271.73-15.74L271.73-7.87L273.74-7.87L273.74 0L258.58 0L258.58-7.87L260.69-7.87L260.69-18.82L258.58-18.82L258.58-26.69L271.73-26.69L271.73-22.94L271.73-22.94Q275.18-27.36 280.37-27.36L280.37-27.36L280.37-27.36Q284.35-27.36 286.34-24.86L286.34-24.86L286.34-24.86Q288.34-22.37 288.34-18L288.34-18L288.34-7.87" fill="#ffffff" stroke="none" stroke-width="none" transform="translate(-144.88999938964844,14.687840372721347)" style="fill: rgb(255, 255, 255);"></path></g></g>
  </g>

</g>
<style id="breath-caeadb92-396d-4954-afa5-bcb041b44a20" data-anikit="">@keyframes breath-caeadb92-396d-4954-afa5-bcb041b44a20
{
  0% {
    animation-timing-function: cubic-bezier(0.9647,0.2413,-0.0705,0.7911);
    transform: scale(0.9099999999999999);
  }
  51% {
    animation-timing-function: cubic-bezier(0.9226,0.2631,-0.0308,0.7628);
    transform: scale(1.02994);
  }
  100% {
    transform: scale(0.9099999999999999);
  }
}</style></svg>